<?xml version="1.0" encoding="UTF-8" standalone="no" ?>
<!DOCTYPE svg PUBLIC "-//W3C//DTD SVG 1.1//EN" "http://www.w3.org/Graphics/SVG/1.1/DTD/svg11.dtd">
<svg xmlns="http://www.w3.org/2000/svg" xmlns:xlink="http://www.w3.org/1999/xlink" version="1.1" width="1080" height="1080" viewBox="0 0 1080 1080" xml:space="preserve">
<desc>Created with Fabric.js 5.2.4</desc>
<defs>
</defs>
<g transform="matrix(1 0 0 1 540 540)" id="1499fae5-e2f6-488d-821f-89ea5fe8a841"  >
<rect style="stroke: none; stroke-width: 1; stroke-dasharray: none; stroke-linecap: butt; stroke-dashoffset: 0; stroke-linejoin: miter; stroke-miterlimit: 4; fill: rgb(255,255,255); fill-rule: nonzero; opacity: 1; visibility: hidden;" vector-effect="non-scaling-stroke"  x="-540" y="-540" rx="0" ry="0" width="1080" height="1080" />
</g>
<g transform="matrix(1 0 0 1 540 540)" id="0c95ac01-dfc8-4078-91e2-0532f0860009"  >
</g>
<g transform="matrix(1.56 0 0 1.56 389.9 321.46)"  >
<polygon style="stroke: none; stroke-width: 1; stroke-dasharray: none; stroke-linecap: butt; stroke-dashoffset: 0; stroke-linejoin: miter; stroke-miterlimit: 4; fill: rgb(254,225,135); fill-rule: nonzero; opacity: 1;" vector-effect="non-scaling-stroke"  points="41.49,79.2 -54.57,79.2 -28.42,-79.2 54.57,-79.2 " />
</g>
<g transform="matrix(1.56 0 0 1.56 690.1 321.46)"  >
<polygon style="stroke: none; stroke-width: 1; stroke-dasharray: none; stroke-linecap: butt; stroke-dashoffset: 0; stroke-linejoin: miter; stroke-miterlimit: 4; fill: rgb(254,225,135); fill-rule: nonzero; opacity: 1;" vector-effect="non-scaling-stroke"  points="54.57,79.2 -41.49,79.2 -54.57,-79.2 28.42,-79.2 " />
</g>
<g transform="matrix(1.56 0 0 1.56 540 685.49)"  >
<path style="stroke: none; stroke-width: 1; stroke-dasharray: none; stroke-linecap: butt; stroke-dashoffset: 0; stroke-linejoin: miter; stroke-miterlimit: 4; fill: rgb(254,225,135); fill-rule: nonzero; opacity: 1;" vector-effect="non-scaling-stroke"  transform=" translate(-256, -349.11)" d="M 189.923 292.385 C 197.632 285.14 206.422 281.61899999999997 216.796 281.61899999999997 C 226.375 281.61899999999997 235.58499999999998 284.676 243.70999999999998 287.37399999999997 C 248.141 288.844 252.38699999999997 290.253 255.99899999999997 290.907 C 259.611 290.253 263.85799999999995 288.844 268.28799999999995 287.37399999999997 C 276.41299999999995 284.676 285.62299999999993 281.61899999999997 295.20199999999994 281.61899999999997 C 305.57599999999996 281.61899999999997 314.36499999999995 285.14 322.07499999999993 292.385 C 346.4629999999999 315.308 338.01399999999995 340.812 332.96399999999994 356.049 L 332.70399999999995 356.84 C 328.0679999999999 370.859 310.6619999999999 416.602 281.32699999999994 416.602 C 265.69399999999996 416.602 260.4239999999999 414.051 256.57699999999994 412.18699999999995 C 256.36999999999995 412.08699999999993 256.17799999999994 411.99499999999995 255.99699999999993 411.907 C 255.81499999999994 411.993 255.62299999999993 412.087 255.41699999999992 412.18699999999995 C 251.5699999999999 414.05199999999996 246.3019999999999 416.602 230.66699999999992 416.602 C 201.3319999999999 416.602 183.9279999999999 370.859 179.2899999999999 356.84 L 179.02999999999992 356.049 C 173.986 340.812 165.536 315.308 189.923 292.385 z" stroke-linecap="round" />
</g>
<g transform="matrix(1.56 0 0 1.56 540 540)"  >
<path style="stroke: none; stroke-width: 1; stroke-dasharray: none; stroke-linecap: butt; stroke-dashoffset: 0; stroke-linejoin: miter; stroke-miterlimit: 4; fill: rgb(255,164,27); fill-rule: nonzero; opacity: 1;" vector-effect="non-scaling-stroke"  transform=" translate(-256, -256)" d="M 511.057 170.235 L 504.647 144.35600000000002 C 502.768 136.77200000000002 495.096 132.14200000000002 487.513 134.02500000000003 C 479.929 135.90400000000002 475.304 143.57500000000005 477.18199999999996 151.15900000000005 L 483.592 177.03900000000004 C 483.916 178.34300000000005 483.438 179.31400000000005 482.981 179.89800000000005 C 482.524 180.48400000000007 481.695 181.18000000000006 480.351 181.18000000000006 L 418.637 181.18000000000006 L 404.433 95.16300000000007 L 397.153 51.079000000000065 L 449.779 51.079000000000065 C 451.317 51.079000000000065 452.651 52.122000000000064 453.022 53.616000000000064 L 459.664 80.43400000000007 C 461.543 88.01800000000007 469.215 92.64600000000007 476.798 90.76500000000007 C 484.382 88.88600000000007 489.007 81.21500000000007 487.129 73.63100000000007 L 480.487 46.81300000000007 C 476.983 32.66500000000008 464.356 22.785000000000075 449.78000000000003 22.785000000000075 L 380.478 22.785000000000075 L 297.491 22.785000000000075 L 214.50599999999997 22.785000000000075 L 131.52099999999996 22.785000000000075 L 62.219 22.785000000000075 C 47.644000000000005 22.785000000000075 35.016000000000005 32.666000000000075 31.512 46.81300000000007 L 0.9420000000000002 170.23300000000006 C -1.4139999999999997 179.74200000000008 0.6970000000000002 189.61900000000006 6.734 197.33400000000006 C 12.771 205.04900000000006 21.852 209.47400000000005 31.648000000000003 209.47400000000005 L 39.74 209.47400000000005 L 39.74 475.06500000000005 C 39.74 482.8790000000001 46.074 489.2130000000001 53.888000000000005 489.2130000000001 L 458.11 489.2130000000001 C 465.92400000000004 489.2130000000001 472.25800000000004 482.8790000000001 472.25800000000004 475.06500000000005 L 472.25800000000004 280.582 C 472.25800000000004 272.768 465.92400000000004 266.43399999999997 458.11 266.43399999999997 C 450.296 266.43399999999997 443.963 272.768 443.963 280.582 L 443.963 460.919 L 68.036 460.919 L 68.036 209.475 L 105.364 209.475 L 201.428 209.475 L 310.57 209.475 C 310.58 209.475 310.58799999999997 209.475 310.598 209.475 L 406.634 209.475 L 406.66200000000003 209.475 L 480.34900000000005 209.475 C 490.14500000000004 209.475 499.22600000000006 205.04999999999998 505.26300000000003 197.33499999999998 C 511.302 189.62 513.413 179.742 511.057 170.235 z M 227.534 51.079 L 284.464 51.079 L 295.206 181.18 L 216.79200000000003 181.18 L 227.534 51.079 z M 29.018 179.898 C 28.561 179.314 28.083000000000002 178.343 28.407 177.037 L 58.978 53.616 C 59.349000000000004 52.122 60.681000000000004 51.079 62.221000000000004 51.079 L 114.84700000000001 51.079 L 109.54700000000001 83.17699999999999 L 93.364 181.18099999999998 L 31.648 181.18099999999998 C 30.304 181.181 29.475 180.484 29.018 179.898 z M 127.34 149.083 L 143.523 51.07899999999999 L 199.143 51.07899999999999 L 188.401 181.18 L 122.03900000000002 181.18 L 127.34 149.083 z M 323.599 181.181 L 315.224 79.74300000000001 L 312.85699999999997 51.08000000000001 L 368.477 51.08000000000001 L 384.65999999999997 149.084 L 389.96 181.18200000000002 L 323.59999999999997 181.18200000000002 L 323.59999999999997 181.181 z" stroke-linecap="round" />
</g>
<g transform="matrix(1.56 0 0 1.56 540 666.18)"  >
<path style="stroke: none; stroke-width: 1; stroke-dasharray: none; stroke-linecap: butt; stroke-dashoffset: 0; stroke-linejoin: miter; stroke-miterlimit: 4; fill: rgb(255,198,27); fill-rule: nonzero; opacity: 1;" vector-effect="non-scaling-stroke"  transform=" translate(-256, -336.75)" d="M 255.999 242.757 C 248.185 242.757 241.851 249.091 241.851 256.90500000000003 L 241.851 271.90000000000003 C 234.449 269.60200000000003 225.936 267.47200000000004 216.796 267.47200000000004 C 202.849 267.47200000000004 190.548 272.38500000000005 180.233 282.07800000000003 C 149.264 311.18600000000004 160.30100000000002 344.494 165.596 360.47900000000004 L 165.862 361.283 C 172.769 382.17 192.911 430.75 230.67000000000002 430.75 C 243.23000000000002 430.75 250.584 429.253 255.99800000000002 427.309 C 261.40500000000003 429.25100000000003 268.76 430.75 281.329 430.75 C 319.089 430.75 339.231 382.17 346.142 361.269 L 346.395 360.50100000000003 C 351.69899999999996 344.494 362.734 311.18800000000005 331.764 282.077 C 321.45 272.386 309.151 267.473 295.20300000000003 267.473 C 286.062 267.473 277.55 269.604 270.148 271.901 L 270.148 256.906 C 270.146 249.091 263.813 242.757 255.999 242.757 z M 295.203 295.765 C 301.988 295.765 307.28799999999995 297.901 312.387 302.693 C 328.855 318.17199999999997 325.367 333.99899999999997 319.53 351.61899999999997 L 319.274 352.39599999999996 C 311.034 377.311 296.10699999999997 402.45099999999996 281.33 402.45099999999996 C 268.938 402.45099999999996 265.507 400.789 262.77299999999997 399.46299999999997 L 262.092 399.135 C 260.16499999999996 398.215 258.084 397.756 255.99999999999997 397.756 C 253.90999999999997 397.756 251.82099999999997 398.219 249.88999999999996 399.14399999999995 L 249.24899999999997 399.45199999999994 C 246.49299999999997 400.78799999999995 243.06199999999995 402.45099999999996 230.66999999999996 402.45099999999996 C 215.89299999999997 402.45099999999996 200.96599999999995 377.311 192.73099999999997 352.40799999999996 L 192.46399999999997 351.59599999999995 C 186.63199999999998 333.9959999999999 183.14599999999996 318.16999999999996 199.61299999999997 302.69199999999995 C 204.71199999999996 297.89899999999994 210.01299999999998 295.763 216.79699999999997 295.763 C 224.08899999999997 295.763 231.79899999999998 298.322 239.25899999999996 300.79999999999995 C 243.99099999999996 302.36899999999997 248.88499999999996 303.99299999999994 253.48099999999997 304.82499999999993 C 255.14799999999997 305.1259999999999 256.854 305.1259999999999 258.52 304.82499999999993 C 263.116 303.99299999999994 268.01 302.3689999999999 272.748 300.7969999999999 C 280.201 298.324 287.912 295.765 295.203 295.765 z" stroke-linecap="round" />
</g>
<g transform="matrix(NaN NaN NaN NaN 0 0)"  >
<g style=""   >
</g>
</g>
<g transform="matrix(NaN NaN NaN NaN 0 0)"  >
<g style=""   >
</g>
</g>
</svg>